HIERARCHY
ROOT Hips
{
  OFFSET 0.0273292 -0.436096 0.279869
  CHANNELS 6 Xposition Yposition Zposition Zrotation Xrotation Yrotation
  JOINT LHipJoint
  {
    OFFSET 0 0 0
    CHANNELS 6 Xposition Yposition Zposition Zrotation Xrotation Yrotation
    JOINT LeftUpLeg
    {
      OFFSET 1.36306 -1.79463 0
      CHANNELS 6 Xposition Yposition Zposition Zrotation Xrotation Yrotation
      JOINT LeftLeg
      {
        OFFSET 2.44807 -6.72613 0.000295034
        CHANNELS 6 Xposition Yposition Zposition Zrotation Xrotation Yrotation
        JOINT LeftFoot
        {
          OFFSET 2.5622 -7.03959 3.59965e-05
          CHANNELS 6 Xposition Yposition Zposition Zrotation Xrotation Yrotation
          JOINT LeftToeBase
          {
            OFFSET 0.15764 -0.43311 2.32255
            CHANNELS 6 Xposition Yposition Zposition Zrotation Xrotation Yrotation
            End Site
            {
              OFFSET 0 0 0
            }
          }
        }
      }
    }
  }
  JOINT RHipJoint
  {
    OFFSET 0 0 0
    CHANNELS 6 Xposition Yposition Zposition Zrotation Xrotation Yrotation
    JOINT RightUpLeg
    {
      OFFSET -1.30552 -1.79463 0
      CHANNELS 6 Xposition Yposition Zposition Zrotation Xrotation Yrotation
      JOINT RightLeg
      {
        OFFSET -2.54234 -6.98562 -0.000396375
        CHANNELS 6 Xposition Yposition Zposition Zrotation Xrotation Yrotation
        JOINT RightFoot
        {
          OFFSET -2.56826 -7.05623 -4.47982e-05
          CHANNELS 6 Xposition Yposition Zposition Zrotation Xrotation Yrotation
          JOINT RightToeBase
          {
            OFFSET -0.16473 -0.45259 2.36315
            CHANNELS 6 Xposition Yposition Zposition Zrotation Xrotation Yrotation
            End Site
            {
              OFFSET 0 0 0
            }
          }
        }
      }
    }
  }
  JOINT LowerBack
  {
    OFFSET 0 0 0
    CHANNELS 6 Xposition Yposition Zposition Zrotation Xrotation Yrotation
    JOINT Spine
    {
      OFFSET 0.0282699 2.03559 0
      CHANNELS 6 Xposition Yposition Zposition Zrotation Xrotation Yrotation
      JOINT Spine1
      {
        OFFSET 0.05672 2.04885 -0.04275
        CHANNELS 6 Xposition Yposition Zposition Zrotation Xrotation Yrotation
        JOINT Neck
        {
          OFFSET 0 0 0
          CHANNELS 6 Xposition Yposition Zposition Zrotation Xrotation Yrotation
          JOINT Neck1
          {
            OFFSET -0.05417 1.74624 0.17202
            CHANNELS 6 Xposition Yposition Zposition Zrotation Xrotation Yrotation
            JOINT Head
            {
              OFFSET 0.10407 1.76136 -0.12397
              CHANNELS 6 Xposition Yposition Zposition Zrotation Xrotation Yrotation
              End Site
              {
                OFFSET 0 0 0
              }
            }
          }
        }
        JOINT LeftShoulder
        {
          OFFSET 0 0 0
          CHANNELS 6 Xposition Yposition Zposition Zrotation Xrotation Yrotation
          JOINT LeftArm
          {
            OFFSET 3.36241 1.20089 -0.311211
            CHANNELS 6 Xposition Yposition Zposition Zrotation Xrotation Yrotation
            JOINT LeftForeArm
            {
              OFFSET 4.983 0.000197398 0.000166057
              CHANNELS 6 Xposition Yposition Zposition Zrotation Xrotation Yrotation
              JOINT LeftHand
              {
                OFFSET 3.48356 0 1.87849e-05
                CHANNELS 6 Xposition Yposition Zposition Zrotation Xrotation Yrotation
                JOINT LeftFingerBase
                {
                  OFFSET 0 0 0
                  CHANNELS 6 Xposition Yposition Zposition Zrotation Xrotation Yrotation
                  JOINT LeftHandIndex1
                  {
                    OFFSET 0.71526 0 0
                    CHANNELS 6 Xposition Yposition Zposition Zrotation Xrotation Yrotation
                    End Site
                    {
                      OFFSET 0 0 0
                    }
                  }
                }
                JOINT LThumb
                {
                  OFFSET 0 0 0
                  CHANNELS 6 Xposition Yposition Zposition Zrotation Xrotation Yrotation
                  End Site
                  {
                    OFFSET 0 0 0
                  }
                }
              }
            }
          }
        }
        JOINT RightShoulder
        {
          OFFSET 0 0 0
          CHANNELS 6 Xposition Yposition Zposition Zrotation Xrotation Yrotation
          JOINT RightArm
          {
            OFFSET -3.1366 1.37405 -0.404651
            CHANNELS 6 Xposition Yposition Zposition Zrotation Xrotation Yrotation
            JOINT RightForeArm
            {
              OFFSET -5.2419 -5.8808e-05 -0.000165864
              CHANNELS 6 Xposition Yposition Zposition Zrotation Xrotation Yrotation
              JOINT RightHand
              {
                OFFSET -3.44417 0 -2.00002e-05
                CHANNELS 6 Xposition Yposition Zposition Zrotation Xrotation Yrotation
                JOINT RightFingerBase
                {
                  OFFSET 0 0 0
                  CHANNELS 6 Xposition Yposition Zposition Zrotation Xrotation Yrotation
                  JOINT RightHandIndex1
                  {
                    OFFSET -0.62253 0 0
                    CHANNELS 6 Xposition Yposition Zposition Zrotation Xrotation Yrotation
                    End Site
                    {
                      OFFSET 0 0 0
                    }
                  }
                }
                JOINT RThumb
                {
                  OFFSET 0 0 0
                  CHANNELS 6 Xposition Yposition Zposition Zrotation Xrotation Yrotation
                  End Site
                  {
                    OFFSET 0 0 0
                  }
                }
              }
            }
          }
        }
      }
    }
  }
}
MOTION
Frames:	4
Frame Time:	0.00833333
-0.196393 1.6567 0.29319 -2.12288 10.386 4.46752 0 0 0 3.97569e-16 0 2.38542e-15 1.36306 -1.79463 -5.22308e-08 -23.6412 -26.0471 -9.89087 2.44805 -6.72616 -1.00433e-05 -12.1211 51.1391 29.8368 2.56219 -7.03959 -4.43201e-05 -4.54458 -35.2186 -21.4646 0.15764 -0.43311 2.32255 -4.42606e-15 1.98785e-16 -0 0 0 0 3.97569e-16 0 2.38542e-15 -1.30552 -1.79463 7.87806e-09 33.5987 -62.3591 28.5785 -2.54248 -6.98557 0.000492087 116.379 57.5777 -137.283 -2.56825 -7.05623 3.7956e-06 -1.19191 1.44348 0.763489 -0.16473 -0.45259 2.36315 7.95139e-15 0 3.18055e-15 0 0 0 3.97569e-16 0 2.38542e-15 0.0282696 2.03559 -1.28383e-06 1.37501 9.38102 -8.15557 0.05672 2.04885 -0.04275 1.98785e-16 -3.18055e-15 -1.59028e-15 0 0 0 -1.98785e-16 -3.18055e-15 -1.19271e-15 -0.05417 1.74624 0.17202 4.0263 -13.3282 3.76545 0.10407 1.76136 -0.12397 -1.98785e-16 7.95139e-16 -0 0 0 0 -1.98785e-16 -3.18055e-15 -1.19271e-15 3.36241 1.20089 -0.311211 -79.5301 10.2607 -28.3069 4.983 0.000264736 2.35894e-05 1.95701 1.22649 -77.1307 3.48356 -4.1924e-06 1.88836e-05 -4.95273 3.95443 0.96094 0 0 0 3.18055e-15 -3.97569e-16 -0 0.71526 0 0 3.18055e-15 2.78299e-15 7.95139e-16 0 0 0 3.18055e-15 -3.97569e-16 -0 0 0 0 -1.98785e-16 -3.18055e-15 -1.19271e-15 -3.1366 1.37405 -0.40465 61.1308 14.8797 13.3603 -5.2419 0.000761492 -0.000231914 -1.88322 1.20917 73.4119 -3.44417 -2.12401e-06 2.06435e-05 9.12859 3.86709 10.5423 0 0 0 -3.18055e-15 3.97569e-15 -6.36111e-15 -0.62253 -8.88178e-16 2.22045e-16 -0 0 1.59028e-15 0 0 0 -3.18055e-15 3.97569e-15 -6.36111e-15 
-0.18974 1.72428 0.300284 -3.011 10.3391 4.59281 0 0 0 -5.96354e-16 -3.18055e-15 -0 1.36306 -1.79463 -5.22308e-08 -21.9948 -22.3462 -7.64585 2.44805 -6.72616 -1.00433e-05 -8.53761 47.966 27.1248 2.56219 -7.03959 -4.43201e-05 -6.1165 -34.5968 -23.3331 0.15764 -0.43311 2.32255 -5.29303e-15 -4.96962e-17 1.98785e-16 0 0 0 -5.96354e-16 -3.18055e-15 -0 -1.30552 -1.79463 7.87806e-09 36.6446 -63.4796 30.9163 -2.54248 -6.98557 0.000492087 113.717 59.3524 -133.324 -2.56825 -7.05623 3.7956e-06 -1.73752 -0.708392 1.45369 -0.16473 -0.45259 2.36315 -3.18055e-15 0 -3.18055e-15 0 0 0 -5.96354e-16 -3.18055e-15 -0 0.0282696 2.03559 -1.28383e-06 2.33751 9.41301 -9.19342 0.05672 2.04885 -0.04275 -1.98785e-16 -3.18055e-15 -0 0 0 0 -7.95139e-16 0 -1.59028e-15 -0.05417 1.74624 0.17202 4.05892 -13.3331 4.67049 0.10407 1.76136 -0.12397 -9.93923e-17 0 -1.98785e-16 0 0 0 -7.95139e-16 0 -1.59028e-15 3.36241 1.20089 -0.311211 -78.6929 11.1791 -30.2761 4.983 0.000264736 2.35894e-05 1.97782 1.15034 -78.1973 3.48356 -4.1924e-06 1.88836e-05 -5.15379 3.63245 1.62642 0 0 0 -3.18055e-15 9.44227e-16 -1.14301e-15 0.71526 0 0 -1.56901e-32 -2.5842e-15 -3.47873e-16 0 0 0 -3.18055e-15 9.44227e-16 -1.14301e-15 0 0 0 -7.95139e-16 0 -1.59028e-15 -3.1366 1.37405 -0.40465 61.9634 15.1198 9.84545 -5.2419 0.000761492 -0.000231914 -1.95264 1.13512 76.5886 -3.44417 -2.12401e-06 2.06435e-05 8.89463 4.74936 11.4626 0 0 0 -6.36111e-15 6.36111e-15 -0 -0.62253 0 -2.22045e-16 3.18055e-15 7.95139e-16 6.36111e-15 0 0 0 -6.36111e-15 6.36111e-15 -0 
-0.173543 1.82533 0.307016 -3.95397 10.3085 4.73884 0 0 0 9.93923e-17 0 1.59028e-15 1.36306 -1.79463 -5.22308e-08 -20.4943 -18.2254 -5.20007 2.44805 -6.72616 -1.00433e-05 -4.78825 43.5442 24.2929 2.56219 -7.03959 -4.43201e-05 -7.57895 -33.2837 -25.2629 0.15764 -0.43311 2.32255 2.38619e-15 -9.93923e-17 1.98785e-16 0 0 0 9.93923e-17 0 1.59028e-15 -1.30552 -1.79463 7.87806e-09 39.5847 -64.2778 32.9757 -2.54248 -6.98557 0.000492087 109.924 61.3312 -128.027 -2.56825 -7.05623 3.7956e-06 -2.32538 -2.75313 2.11223 -0.16473 -0.45259 2.36315 3.18055e-15 6.36111e-15 -1.59028e-15 0 0 0 9.93923e-17 0 1.59028e-15 0.0282696 2.03559 -1.28383e-06 3.37134 9.41313 -10.2537 0.05672 2.04885 -0.04275 3.97569e-16 3.18055e-15 -2.38542e-15 0 0 0 4.41391e-32 3.18055e-15 -7.95139e-16 -0.05417 1.74624 0.17202 3.79099 -13.3716 5.42141 0.10407 1.76136 -0.12397 3.47873e-16 0 1.98785e-16 0 0 0 4.41391e-32 3.18055e-15 -7.95139e-16 3.36241 1.20089 -0.311211 -77.7343 12.3292 -31.6153 4.983 0.000264736 2.35894e-05 2.01981 1.05345 -80.5938 3.48356 -4.1924e-06 1.88836e-05 -5.57508 2.92302 3.19278 0 0 0 -3.44836e-33 -9.93923e-16 -1.98785e-16 0.71526 0 0 3.18055e-15 5.96354e-16 -7.95139e-16 0 0 0 -3.44836e-33 -9.93923e-16 -1.98785e-16 0 0 0 4.41391e-32 3.18055e-15 -7.95139e-16 -3.1366 1.37405 -0.40465 62.7505 15.4724 5.99312 -5.2419 0.000761492 -0.000231914 -2.01599 1.00339 80.6877 -3.44417 -2.12401e-06 2.06435e-05 8.64348 5.5717 12.347 0 0 0 6.36111e-15 1.59028e-15 -6.36111e-15 -0.62253 0 2.22045e-16 -6.36111e-15 -3.97569e-15 3.18055e-15 0 0 0 6.36111e-15 1.59028e-15 -6.36111e-15 
-0.153444 1.94206 0.312043 -4.85307 10.2919 4.85994 0 0 0 -1.2921e-15 0 -0 1.36306 -1.79463 -5.22308e-08 -19.3012 -14.1551 -2.79776 2.44805 -6.72616 -1.00433e-05 -1.57568 38.8245 21.894 2.56219 -7.03959 -4.43201e-05 -8.49684 -31.2622 -26.5276 0.15764 -0.43311 2.32255 1.61202e-15 1.98785e-16 -0 0 0 0 -1.2921e-15 0 -0 -1.30552 -1.79463 7.87806e-09 42.2831 -64.6574 34.7967 -2.54248 -6.98557 0.000492087 104.602 63.3466 -121.298 -2.56825 -7.05623 3.7956e-06 -2.76282 -4.59886 2.71671 -0.16473 -0.45259 2.36315 -1.59028e-15 6.36111e-15 3.18055e-15 0 0 0 -1.2921e-15 0 -0 0.0282696 2.03559 -1.28383e-06 4.36957 9.3919 -11.2984 0.05672 2.04885 -0.04275 1.19271e-15 3.18055e-15 7.95139e-16 0 0 0 7.95139e-16 6.36111e-15 1.59028e-15 -0.05417 1.74624 0.17202 3.40769 -13.4302 6.25665 0.10407 1.76136 -0.12397 9.93923e-17 -7.95139e-16 1.98785e-16 0 0 0 7.95139e-16 6.36111e-15 1.59028e-15 3.36241 1.20089 -0.311211 -76.7394 13.5442 -32.5735 4.983 0.000264736 2.35894e-05 2.07022 1.04227 -83.1118 3.48356 -4.1924e-06 1.88836e-05 -5.96767 2.21271 5.01674 0 0 0 3.18055e-15 -3.97569e-16 -7.95139e-16 0.71526 0 -2.22045e-16 6.36111e-15 -5.96354e-16 -1.19271e-15 0 0 0 3.18055e-15 -3.97569e-16 -7.95139e-16 0 0 0 7.95139e-16 6.36111e-15 1.59028e-15 -3.1366 1.37405 -0.40465 63.4178 15.9715 2.16313 -5.2419 0.000761492 -0.000231914 -2.07439 0.967705 84.2525 -3.44417 -2.12401e-06 2.06435e-05 8.39022 6.30996 13.1634 0 0 0 -6.36111e-15 -3.18055e-15 -0 -0.62253 0 -2.22045e-16 -6.36111e-15 -1.59028e-15 -0 0 0 0 -6.36111e-15 -3.18055e-15 -0 
